<?xml version="1.0" encoding="UTF-8"?>
<svg xmlns="http://www.w3.org/2000/svg" xmlns:xlink="http://www.w3.org/1999/xlink" viewBox="0 0 128 128" width="128px" height="128px">
<g id="surface17377574">
<path style=" stroke:none;fill-rule:nonzero;fill:rgb(0.784314%,45.882353%,84.705883%);fill-opacity:1;" d="M 97.601562 27.601562 C 90.417969 27.601562 84.6875 27.460938 80.046875 29.167969 C 77.726562 30.023438 75.644531 31.492188 74.304688 33.648438 C 72.964844 35.804688 72.398438 38.464844 72.398438 41.601562 C 72.398438 43.164062 72.042969 43.632812 71.546875 44.082031 C 71.050781 44.53125 70.140625 44.917969 69.003906 45.164062 C 64.484375 46.148438 60.832031 48.359375 58.613281 51.875 C 56.394531 55.394531 55.601562 59.871094 55.601562 65.398438 L 55.601562 78 C 55.601562 79.582031 54.382812 80.800781 52.800781 80.800781 C 51.21875 80.800781 50 79.582031 50 78 L 50 50 L 30.398438 50 L 30.398438 78 C 30.398438 90.339844 40.460938 100.398438 52.800781 100.398438 C 65.136719 100.398438 75.199219 90.339844 75.199219 78 L 75.199219 69.601562 C 75.199219 64.871094 75.257812 60.160156 76.363281 56.699219 C 77.472656 53.238281 79.140625 51.027344 83.578125 49.917969 C 86.671875 49.144531 89.21875 47.871094 90.582031 45.484375 C 91.949219 43.09375 92 40.472656 92 37.050781 C 92 35.976562 92.265625 35.476562 92.65625 35.011719 C 93.046875 34.542969 93.675781 34.132812 94.429688 33.835938 C 95.933594 33.238281 97.601562 33.199219 97.601562 33.199219 Z M 87.460938 34 C 87.0625 35.011719 86.398438 35.832031 86.398438 37.050781 C 86.398438 40.277344 86.101562 42.03125 85.714844 42.703125 C 85.332031 43.378906 84.730469 43.855469 82.222656 44.480469 C 79.476562 45.167969 77.265625 46.421875 75.5 48.007812 C 77 46.535156 78 44.265625 78 41.601562 C 78 39.136719 78.445312 37.59375 79.0625 36.601562 C 79.675781 35.609375 80.496094 34.976562 81.980469 34.429688 C 83.023438 34.046875 85.839844 34.179688 87.460938 34 Z M 74.894531 48.546875 C 73.050781 50.390625 71.78125 52.636719 71.027344 54.992188 C 69.519531 59.710938 69.601562 64.878906 69.601562 69.601562 L 69.601562 78 C 69.601562 87.3125 62.113281 94.800781 52.800781 94.800781 C 43.488281 94.800781 36 87.3125 36 78 L 36 55.601562 L 44.398438 55.601562 L 44.398438 78 C 44.398438 82.605469 48.195312 86.398438 52.800781 86.398438 C 57.40625 86.398438 61.199219 82.605469 61.199219 78 L 61.199219 65.398438 C 61.199219 60.429688 61.980469 57.03125 63.347656 54.863281 C 64.71875 52.691406 66.664062 51.402344 70.195312 50.632812 C 71.667969 50.316406 73.371094 49.761719 74.894531 48.546875 Z M 74.894531 48.546875 "/>
</g>
</svg>
