<?xml version="1.0" encoding="UTF-8"?>
<svg xmlns="http://www.w3.org/2000/svg" xmlns:xlink="http://www.w3.org/1999/xlink" viewBox="0 0 256 256" width="256px" height="256px">
<g id="surface17375062">
<path style=" stroke:none;fill-rule:nonzero;fill:rgb(0.784314%,45.882353%,84.705883%);fill-opacity:1;" d="M 195.199219 55.199219 C 180.839844 55.199219 169.371094 54.925781 160.089844 58.339844 C 155.449219 60.046875 151.285156 62.980469 148.605469 67.296875 C 145.925781 71.613281 144.800781 76.929688 144.800781 83.199219 C 144.800781 86.324219 144.085938 87.265625 143.09375 88.164062 C 142.101562 89.0625 140.277344 89.839844 138.007812 90.332031 C 128.96875 92.296875 121.664062 96.714844 117.226562 103.75 C 112.789062 110.785156 111.199219 119.738281 111.199219 130.800781 L 111.199219 156 C 111.199219 159.164062 108.765625 161.601562 105.601562 161.601562 C 102.4375 161.601562 100 159.164062 100 156 L 100 100 L 60.800781 100 L 60.800781 156 C 60.800781 180.675781 80.925781 200.800781 105.601562 200.800781 C 130.277344 200.800781 150.398438 180.675781 150.398438 156 L 150.398438 139.199219 C 150.398438 129.742188 150.515625 120.324219 152.730469 113.398438 C 154.941406 106.472656 158.285156 102.054688 167.15625 99.835938 C 173.34375 98.289062 178.4375 95.742188 181.167969 90.964844 C 183.898438 86.1875 184 80.945312 184 74.101562 C 184 71.953125 184.527344 70.953125 185.3125 70.019531 C 186.097656 69.089844 187.351562 68.265625 188.855469 67.667969 C 191.867188 66.476562 195.199219 66.398438 195.199219 66.398438 Z M 174.921875 67.996094 C 174.125 70.023438 172.800781 71.667969 172.800781 74.101562 C 172.800781 80.554688 172.203125 84.0625 171.433594 85.410156 C 170.664062 86.757812 169.457031 87.710938 164.445312 88.964844 C 158.953125 90.335938 154.53125 92.847656 151 96.019531 C 154 93.066406 156 88.53125 156 83.199219 C 156 78.269531 156.890625 75.1875 158.121094 73.203125 C 159.355469 71.21875 160.992188 69.953125 163.960938 68.859375 C 166.046875 68.09375 171.675781 68.363281 174.921875 67.996094 Z M 149.789062 97.089844 C 146.097656 100.785156 143.5625 105.273438 142.054688 109.984375 C 139.039062 119.417969 139.199219 129.757812 139.199219 139.199219 L 139.199219 156 C 139.199219 174.625 124.222656 189.601562 105.601562 189.601562 C 86.976562 189.601562 72 174.625 72 156 L 72 111.199219 L 88.800781 111.199219 L 88.800781 156 C 88.800781 165.210938 96.386719 172.800781 105.601562 172.800781 C 114.8125 172.800781 122.398438 165.210938 122.398438 156 L 122.398438 130.800781 C 122.398438 120.859375 123.960938 114.0625 126.699219 109.722656 C 129.4375 105.382812 133.328125 102.804688 140.390625 101.269531 C 143.332031 100.628906 146.738281 99.523438 149.789062 97.089844 Z M 149.789062 97.089844 "/>
</g>
</svg>
